<?xml version="1.0" encoding="UTF-8" standalone="no"?>
<!DOCTYPE svg PUBLIC "-//W3C//DTD SVG 1.1//EN" "http://www.w3.org/Graphics/SVG/1.1/DTD/svg11.dtd">
<svg width="100%" height="100%" viewBox="0 0 281 281" version="1.1" xmlns="http://www.w3.org/2000/svg" xmlns:xlink="http://www.w3.org/1999/xlink" xml:space="preserve" xmlns:serif="http://www.serif.com/" style="fill-rule:evenodd;clip-rule:evenodd;stroke-linejoin:round;stroke-miterlimit:1.41421;">
    <g transform="matrix(1,0,0,1,-445.486,-223.984)">
        <g transform="matrix(2.24284,0,0,2.24284,-325.979,-533.031)">
            <g transform="matrix(0.25423,0,0,0.25423,326.678,267.967)">
                <path d="M559.496,371.9C559.496,317.648 515.45,273.602 461.199,273.602L166.306,273.602C112.054,273.602 68.009,317.648 68.009,371.9L68.009,666.792C68.009,721.044 112.054,765.089 166.306,765.089L461.199,765.089C515.45,765.089 559.496,721.044 559.496,666.792L559.496,371.9Z" style="fill:url(#_Linear1);"/>
            </g>
            <g transform="matrix(152.671,0,0,152.671,371.863,440.153)">
                <path d="M0.224,0.012C0.164,0.012 0.117,-0.003 0.084,-0.034C0.051,-0.063 0.034,-0.106 0.033,-0.154C0.033,-0.156 0.034,-0.157 0.035,-0.158C0.036,-0.159 0.037,-0.16 0.039,-0.16C0.06,-0.16 0.13,-0.16 0.15,-0.16C0.154,-0.16 0.156,-0.158 0.156,-0.155C0.158,-0.131 0.165,-0.114 0.178,-0.103C0.192,-0.092 0.209,-0.086 0.228,-0.086C0.247,-0.086 0.263,-0.091 0.277,-0.1C0.291,-0.109 0.298,-0.123 0.298,-0.143C0.298,-0.164 0.29,-0.18 0.274,-0.19C0.258,-0.199 0.233,-0.209 0.198,-0.218C0.165,-0.227 0.138,-0.237 0.117,-0.246C0.096,-0.255 0.079,-0.271 0.064,-0.292C0.049,-0.313 0.041,-0.342 0.041,-0.378C0.041,-0.429 0.059,-0.469 0.094,-0.497C0.129,-0.524 0.174,-0.538 0.229,-0.538C0.28,-0.538 0.323,-0.525 0.357,-0.5C0.389,-0.475 0.405,-0.423 0.407,-0.38C0.407,-0.378 0.406,-0.377 0.405,-0.376C0.404,-0.375 0.403,-0.374 0.401,-0.374C0.38,-0.374 0.31,-0.374 0.29,-0.374C0.287,-0.374 0.284,-0.376 0.284,-0.38C0.282,-0.42 0.262,-0.44 0.225,-0.44C0.206,-0.44 0.191,-0.435 0.18,-0.426C0.169,-0.417 0.163,-0.404 0.163,-0.388C0.163,-0.369 0.171,-0.356 0.186,-0.347C0.201,-0.339 0.225,-0.331 0.258,-0.322C0.292,-0.313 0.32,-0.304 0.341,-0.295C0.362,-0.285 0.381,-0.269 0.397,-0.248C0.412,-0.226 0.42,-0.196 0.42,-0.158C0.42,-0.045 0.355,0.012 0.224,0.012Z" style="fill:white;fill-rule:nonzero;"/>
            </g>
        </g>
    </g>
    <defs>
        <linearGradient id="_Linear1" x1="0" y1="0" x2="1" y2="0" gradientUnits="userSpaceOnUse" gradientTransform="matrix(491.487,0,0,491.487,68.0088,519.346)"><stop offset="0" style="stop-color:rgb(0,133,255);stop-opacity:1"/><stop offset="1" style="stop-color:rgb(0,226,255);stop-opacity:1"/></linearGradient>
    </defs>
</svg>
